<svg version="1" xmlns="http://www.w3.org/2000/svg" width="933.333" height="933.333" viewBox="0 0 700.000000 700.000000"><path d="M326.5 65c-38.7 3.5-72.2 13.1-106.8 30.8C143.9 134.4 88.1 207 70.6 289.9c-20.4 96.4 8.9 194.2 78.7 263.4 111.6 110.4 291.5 109.8 402.6-1.3 45.6-45.6 73.9-103.9 82.2-169.5 1.7-12.9 1.7-52.1 0-65-10.2-80-49.6-148.6-112.6-196-39.8-29.9-85.1-48.4-135-55-14.5-1.9-46.3-2.7-60-1.5zm34.8 3.3C369 71.5 376 81.7 376 89.7c0 1.3.2 2.3.5 2.3 6 0 39.6 6.7 41 8.2.7.7.2.9-1.5.5-1.4-.2-8.1-1.6-15-3s-15.3-2.9-18.7-3.3l-6.2-.6-.6 3.5c-1 5.1-5.7 12.1-10.5 15.6-11.8 8.5-29 5.1-36.9-7.5-1.6-2.4-3.2-6.1-3.6-8.1l-.6-3.5-6.2.6c-3.4.4-11.8 1.9-18.7 3.3-6.9 1.4-13.6 2.8-15 3-1.8.4-2.2.2-1.5-.5 1-1.1 26.6-6.4 36.8-7.7 4-.5 4.7-.9 4.7-2.9 0-7.3 6.3-17.2 13.2-20.7 8-4.1 15.4-4.3 24.1-.6zm-85.4 27.3c3.6 2.5 5.2 7.4 4 11.8-1.2 4.5-5 7.1-10.2 7.1-5.4 0-9.7-4.7-9.7-10.6 0-8 9.3-12.9 15.9-8.3zm161.2 1.3c4 4.1 4.1 9.8 0 14.3-7.5 8.4-21-.2-16.7-10.7 3-7 11.4-8.8 16.7-3.6zM256 109.7c-20.6 9.6-29.5 14-37.4 18.7-9.1 5.5-11.3 6.5-10.2 4.7.7-1 17.2-10.9 24.6-14.6 8.2-4.2 23.3-10.4 25-10.4.8 0-.1.8-2 1.6zm198.1 2.9c5.9 2.5 16.3 7.7 23.1 11.6 13.2 7.5 15.1 8.8 14.4 9.6-.3.2-5.2-2.3-10.8-5.6-5.7-3.4-15.5-8.5-21.8-11.5-6.3-2.9-13.1-6-15-6.9-7.8-3.7 0-1.5 10.1 2.8zM343 119.5c3.7 1.9 5 4.3 5 9.5 0 3-.6 4.7-2.4 6.5-6.7 6.7-17.6 2.7-17.6-6.5 0-5.1 1.2-7.5 4.8-9.4 3.5-2 6.6-2 10.2-.1zm24 0c3.7 1.9 5 4.3 5 9.5 0 3-.6 4.7-2.4 6.5-6.7 6.7-17.6 2.7-17.6-6.5 0-5.1 1.2-7.5 4.8-9.4 3.5-2 6.6-2 10.2-.1zm-161.6 14.4c6.4 6.7 1.8 17.1-7.5 17.1-3.1 0-4.7-.7-7-2.9-6.5-6.6-2-17.1 7.3-17.1 3.6 0 5 .6 7.2 2.9zm303.7 0c6.4 6.4 2 17.1-7 17.1-9.2 0-13.9-10.9-7.5-17.4 3.9-3.8 10.5-3.7 14.5.3zm-171 9c4.1 4.1 4.1 10.6.2 14.3-3.4 3.2-7 4.2-10.5 2.9-7.3-2.8-9.3-11.7-3.9-17.2 2.3-2.3 3.8-2.9 7.1-2.9s4.8.6 7.1 2.9zm38 0c7.1 7.1.5 19.9-9.1 17.6-7.9-2-10.8-11.9-5.1-17.6 2.3-2.3 3.8-2.9 7.1-2.9s4.8.6 7.1 2.9zM189 148.4c0 .2-4.8 4.5-10.6 9.6s-14.9 14.2-20.1 20.2c-5.3 5.9-9.8 10.6-10.1 10.4-.7-.7 2.2-4.4 11.5-14.4 12.4-13.5 29.3-28.4 29.3-25.8zm333.2 8c13.4 11.9 30.8 30.9 29.6 32.2-.3.2-4.8-4.5-10.1-10.4-5.2-6-14.3-15.1-20.1-20.2-5.8-5.1-10.6-9.4-10.6-9.6 0-1.5 3 .7 11.2 8zm-190.9 8.7c6 6.5 1.7 16.9-7.1 16.9-4.9 0-8.9-2.9-10-7.3-1.1-4.4-.4-7.2 2.5-10.1 4.3-4.3 10.2-4.1 14.6.5zm48.1-3.1c.8 0 2.5 1.2 4 2.6 3.8 3.9 3.7 10.5-.3 14.5-6.4 6.4-17.1 2-17.1-6.9 0-6.3 5.8-11.9 10.8-10.6.8.2 1.9.4 2.6.4zM322 184.5c3.7 1.9 5 4.3 5 9.2-.1 8-7.8 12.5-15 8.8-3.6-1.9-5.2-4.7-5.2-9.1 0-8.2 7.8-12.7 15.2-8.9zm66.7.5c7.5 4.5 5.4 16.4-3.3 18.6-6.2 1.6-12.4-3.3-12.4-9.8 0-4.9 1.3-7.3 4.8-9.2 3.7-2.1 7.1-1.9 10.9.4zm-240.6 5.9c5.2 5.2 3.4 13.7-3.5 16.6-6.9 2.9-13.6-1.6-13.6-9.2 0-6.2 4-10.3 10-10.3 3.3 0 4.8.6 7.1 2.9zm418 0c7.8 7.8-.6 20.9-10.6 16.7-10.5-4.4-7.7-19.6 3.5-19.6 3.3 0 4.8.6 7.1 2.9zm-249 17c5.2 5.2 3.4 13.7-3.5 16.6-10.5 4.4-18.9-9-10.6-16.8 4.3-3.9 10.1-3.8 14.1.2zm79.9-.2c6 5.7 3.2 16.1-4.8 17.6-9.7 1.9-16.3-10.4-9.3-17.4 4-4 9.8-4.1 14.1-.2zm-267.9 9.8c-2.9 4.8-7.2 12.8-9.8 17.8-5 10.1-5.1 10.3-5.8 9.6-.6-.7 5.3-13 10.7-22.2 6.6-11.4 8.9-14.9 9.5-14.4.2.3-1.8 4.4-4.6 9.2zm445.4 3c6.9 11.9 12.7 23.7 12 24.4-.7.7-.9.4-5.5-8.9-2.3-4.7-6.6-12.6-9.6-17.6-3-5-5.4-9.5-5.4-10 0-1.8 3 2.4 8.5 12.1zM310.3 230c6 6.6 1.7 17-7.1 17-7.7 0-12.7-7.4-9.8-14.4 2.9-7 11.7-8.3 16.9-2.6zm91.3-2.5c10.1 4.2 6.3 19.5-4.8 19.5-8.3 0-12.9-9.8-7.7-16.4 3.6-4.6 7-5.4 12.5-3.1zm-287.1 20.9c8.8 4.1 13.7 11.8 13.7 21.6 0 14.1-9.9 23.9-24.2 24-26.5.1-33.1-37.7-8.1-46.6 5.7-2.1 12.9-1.7 18.6 1zm488.9-1.2c5.5 1.6 13.8 9.9 15.4 15.4 3.5 11.9-1.6 23.7-12.4 29-4.6 2.3-6.4 2.6-12.3 2.2-8.2-.4-13.5-3.5-18.6-10.6-2.5-3.7-3-5.5-3.3-11.6-.3-5.9 0-8.1 1.8-11.9 5.1-10.9 17.3-16 29.4-12.5zm-185.7 3.2c13.4 6.3 17.2 24.3 7.6 35.6-2 2.3-5.1 5.1-6.7 6.1l-3.1 1.9h3.3c8 0 12.1 10.4 6.7 16.8-4.9 5.8-14.2 4.6-17.1-2.3-1.7-4.2-1-8 2.2-11.5l2.3-2.5-6.2-.1c-10.4-.1-18.4-5.8-21.7-15.3-1.7-5-1.7-5-3-2.6-.7 1.3-2.9 3.2-4.8 4.1-7 3.3-14.4-1.4-14.4-9.2 0-10.4 13.1-14.2 18.9-5.5 2 2.9 2.3 3.1 2.3 1.2 0-2.8 3.1-8.9 6.4-12.4 6.3-6.8 17.9-8.6 27.3-4.3zm-115.9 1.1c15.5 6.5 17.2 29 2.9 37.9-9 5.6-19.9 4.5-27.1-2.7-10.5-10.6-7.9-27.7 5.3-34.7 4.5-2.4 13.7-2.6 18.9-.5zm-152.9 10.1c1.3.9 2.9 3.1 3.6 4.8 4.4 10.5-9 18.9-16.7 10.6-6.1-6.6-1.8-17 6.9-17 2.1 0 4.9.7 6.2 1.6zm24.2 1.3c4 4 4.1 9.8.2 14.1-5.7 6-16.1 3.2-17.6-4.8-1.9-9.7 10.4-16.3 17.4-9.3zm21.5-1.4c3 2 4.7 6.8 4 10.8-1.7 9.1-14.2 11-18.9 2.9-4-6.8.9-15.2 8.7-15.2 2.3 0 5.1.7 6.2 1.5zm21.8-.4c2.6 1.2 5.6 6.3 5.6 9.6 0 1-.9 3.2-2 5-5 8.2-19 4.6-19-5 0-3.4 2.4-8.2 4.7-9.6 2.4-1.4 7.6-1.4 10.7 0zm23.5.5c1.3.9 2.9 3.1 3.6 4.8 4.4 10.5-9 18.9-16.7 10.6-6.1-6.6-1.8-17 6.9-17 2.1 0 4.9.7 6.2 1.6zm24.2 1.3c6.1 6.1 2.1 17.2-6.3 17.4-7 .2-11.3-4.1-11.1-11.1.2-8.4 11.3-12.4 17.4-6.3zm184.8-1.3c1.3.9 2.9 3.1 3.6 4.8 4.4 10.5-9 18.9-16.7 10.6-6.1-6.6-1.8-17 6.9-17 2.1 0 4.9.7 6.2 1.6zm24.2 1.3c4 4 4.1 9.8.2 14.1-5.7 6-16.1 3.2-17.6-4.8-1.9-9.7 10.4-16.3 17.4-9.3zm21.5-1.4c4.7 3.2 5.6 12.2 1.6 15.8-5.1 4.6-12.9 3.9-16.2-1.6-1.1-1.8-2-4-2-5 0-3.1 3-8.4 5.3-9.5 3.2-1.6 8.9-1.4 11.3.3zm23.7 1.1c10 9.9-4.1 24.1-14.5 14.7-4-3.6-3.1-12.6 1.6-15.8 3.5-2.5 9.9-1.9 12.9 1.1zm21.6-1c1.3.9 2.9 3.1 3.6 4.8 4.4 10.5-9 18.9-16.7 10.6-6.1-6.6-1.8-17 6.9-17 2.1 0 4.9.7 6.2 1.6zm24.2 1.3c4 4 4.1 9.8.2 14.1-5.7 6-16.1 3.2-17.6-4.8-1.9-9.7 10.4-16.3 17.4-9.3zm-230.2.7c5.8 4.8 4.7 13.5-2 17-8.9 4.6-18.4-5.7-13.5-14.5 3-5.4 10.6-6.7 15.5-2.5zm22-1c8.7 6.2 3.5 20.5-6.9 19-7.3-1.1-11.6-10.5-7.4-16.4 2.9-4.2 10.1-5.5 14.3-2.6zm-212.8 23.3c6.5 6.6 2 17.1-7.3 17.1-9.7 0-13.9-10.6-7.1-17.4 3.8-3.8 10.4-3.7 14.4.3zm427.8-.8c4.8 4.5 5 10.7.4 15.3-3.8 3.8-10.4 3.7-14.4-.3-6.5-6.6-2-17.1 7.3-17.1 3.1 0 5.1.6 6.7 2.1zM289.5 296c.2 0 1 1.6 2 3.6 4.9 10.4-8.4 19.6-16.6 11.5-7.8-7.8.7-20.6 11-16.5 1.8.8 3.5 1.4 3.6 1.4zm-191.8 2.2c-1.4 5.5-3.7 22.1-4.3 30.5-.4 5.1-1.1 9.3-1.5 9.3-1.1 0-1.1-1.2.1-13 1.4-13.8 4.2-29 5.3-29 .5 0 .7 1 .4 2.2zm63.5.5c4.7 4.8 3.8 13.3-2 16.6-6.7 3.9-15.2-.9-15.2-8.5 0-4.9 1.3-7.3 4.8-9.3 3.4-1.9 9.8-1.3 12.4 1.2zm389.1-1.6c3.7 1.9 5.7 5.2 5.7 9.5 0 7.6-8.1 12.5-14.8 9-3.8-2-5.4-4.7-5.4-9.2 0-7.8 7.8-12.7 14.5-9.3zm54.1 2.6c3.4 20 5.2 38.3 3.8 38.3-.5 0-1.2-4.2-1.6-9.3-.6-8.4-2.9-25-4.3-30.5-.3-1.2-.1-2.2.5-2.2.5 0 1.2 1.7 1.6 3.7zm-426.3 11.6c8.5 5.7 4.6 18.7-5.6 18.7s-14.1-13-5.6-18.7c1.9-1.3 4.4-2.3 5.6-2.3 1.2 0 3.7 1 5.6 2.3zm354.7-.3c3.4 2.1 5.2 5.4 5.2 9.7 0 3.7-6 9.3-9.9 9.3-10.8 0-15-12.8-6.2-18.7 4.2-2.8 6.6-2.9 10.9-.3zm-252.2 5.9c7.9 4.8 5.7 17-3.3 18.7-11.2 2.1-17.2-12.9-7.5-18.9 3.6-2.2 7-2.1 10.8.2zm151.7 2.2c6 6.4 1.7 16.9-7 16.9-4.7 0-8.1-2.2-9.9-6.6-3-7.2 3.4-15.2 11.1-13.8 1.7.3 4.2 1.9 5.8 3.5zm-234.2 6.8c5.2 5.2 3.4 13.7-3.5 16.6-4 1.7-7.9.9-11-2.1-3-3.1-3.8-7-2.1-11 2.9-6.9 11.4-8.7 16.6-3.5zm317.3-.8c4.8 3.7 5.2 11 1 15.3-3.1 3-7 3.8-11 2.1-4.2-1.7-6.4-5.1-6.4-9.8 0-8.1 9.9-12.7 16.4-7.6zm-298.7 14.4c3 3.5 3.8 6.9 2.3 10.4-1.7 4.2-4.3 6.2-8.9 6.8-3.6.5-4.4.2-7.6-3-2.7-2.7-3.5-4.3-3.5-7.2 0-2.9.8-4.5 3.5-7.2 3.2-3.2 3.9-3.5 7.8-3 2.8.4 4.9 1.4 6.4 3.2zm280.9-.1c4.8 4.8 4.7 9.5-.1 14.3-3.2 3.2-3.9 3.5-7.8 3-7.5-1-11.5-8.2-8.1-14.6 3.7-6.9 10.6-8.1 16-2.7zm-222.8.1c8.1 6.8 1.7 20-8.8 17.9-4.4-.9-8-5.6-8-10.6 0-8.6 10-13 16.8-7.3zm161.5-1.4c8.8 4.5 7.1 17.6-2.6 19.4-4 .8-9-1.4-10.8-4.6-1.6-3.1-1.4-8.6.6-11.5 2.6-4.1 8.4-5.5 12.8-3.3zm-338 3.9c4.8 3.8 4.4 13-.7 16.5-1.1.8-4 1.5-6.4 1.5-9.4 0-13.5-10.8-6.7-17.6 3.2-3.1 10-3.3 13.8-.4zm517.2.4c6.8 6.8 2.7 17.6-6.7 17.6-2.4 0-5.3-.7-6.4-1.5-5.1-3.5-5.5-12.7-.7-16.5 3.8-2.9 10.6-2.7 13.8.4zm-384 8c4.8 2 6.9 5.7 6.2 10.9-.7 5.5-4.3 8.7-9.7 8.7-4.7 0-9.6-3.7-10.5-8-.9-4.1 2.1-9.9 5.9-11.6 3.9-1.7 4-1.7 8.1 0zm244.9 0c4 1.7 7 7.4 6.1 11.6-.9 4.3-5.8 8-10.5 8-5.4 0-9-3.2-9.7-8.7-.7-5.2 1.4-8.8 6-10.8 4-1.8 4.1-1.8 8.1-.1zm-208.1 10.8c2.2 1.3 5.5 4.3 7.2 6.6 2.7 4 3 5.1 3 12.2s-.3 8.2-3 12.2c-8.8 12.5-27.1 12.5-35.9 0-4.2-5.9-4.8-15-1.6-21.7 5.4-11.1 19.2-15.4 30.3-9.3zm183.8-.5c7.4 3.8 11.1 9.3 11.7 17.3.6 7.9-1.7 13.9-6.9 18.3-8.5 7.3-19.9 7.5-28.5.4-8.9-7.4-10-23-2.1-31.6 3.2-3.4 11.5-7.1 16.3-7.1 2.4 0 6.2 1.1 9.5 2.7zM93 366.4c0 7.1 2.8 27 5.5 39.1 2.8 12.2 2.9 13.3 1.6 11.9-3.1-3.2-10.8-55.4-8.2-55.4.6 0 1.1 1.9 1.1 4.4zm515.5 3.3c-1.5 17.2-6.6 45.7-8.6 47.7-1.3 1.4-1.2.3 1.6-11.9 2.7-12.1 5.5-32 5.5-39.1 0-2.5.5-4.4 1.1-4.4.7 0 .9 2.4.4 7.7zm-316.7 22.8c3.9 3.2 4.8 7.2 2.8 11.9-2.9 7-12.2 8.2-17.1 2.4-3.6-4.2-3.4-9.4.4-13.6 3.9-4.2 9.5-4.5 13.9-.7zm129.9 1c3.2 3.2 3.5 4 3 7.7-.8 5.9-4.5 9.3-10.2 9.3-5.7 0-9.4-3.4-10.2-9.3-.5-3.7-.2-4.5 3-7.7 2.7-2.7 4.3-3.5 7.2-3.5 2.9 0 4.5.8 7.2 3.5zm-170 12.3c1.3.8 2.8 3.1 3.4 5.2.9 3 .8 4.3-.5 7.2-4.6 9.7-19.6 6.7-19.6-4 0-8.8 9.1-13.4 16.7-8.4zm59.6 1.2c3.9 4.4 3.7 9.2-.7 13.6s-9.2 4.6-13.6.6c-4.1-3.6-4.8-8.5-2-13 3.8-6.1 11.3-6.7 16.3-1.2zm91.3-1.5c3.3 2.1 4.7 7.9 3 12-4.4 10.3-19.6 7.8-19.6-3.3 0-4.3 2.8-8.7 6.4-10.3 2.6-1.1 7.3-.4 10.2 1.6zm60.2 2c1.5 1.8 2.2 3.9 2.2 6.6 0 10.7-14.9 13.9-19.6 4.1-1.3-2.9-1.4-4.2-.5-7.2 1.3-4.3 2.8-5.8 6.8-6.9 3.8-1.1 8.3.3 11.1 3.4zM329.5 420c2.3 2.4 2.7 3.5 2.4 7.3l-.4 4.5 3-2.6c4.5-3.7 8.8-5.2 15.3-5.2 6.4 0 11 1.5 15.5 5l2.8 2.2-.6-2.5c-.9-3.4 1.9-9.1 5.1-10.6 7.6-3.4 15.4 1.1 15.4 8.9 0 6.1-4.3 10.1-11 10.2-.3.1-1.7-.2-3.2-.6l-2.6-.6 1.5 4.8c5.6 18.5-14.1 36.1-31.7 28.1-11.9-5.4-17.3-17.2-13.3-29.1l1.9-5.7-2 1.5c-1.1.8-3.8 1.4-5.9 1.4-11.3 0-13.4-17-2.4-19.8 4.5-1.2 7.1-.4 10.2 2.8zm-220.9.5c4.1 1.7 6.9 7.1 5.9 11.6-1 4.3-5.8 7.9-10.7 7.9-11 0-13.7-15.1-3.4-19.6 3.9-1.7 4-1.7 8.2.1zm490.8-.1c10.5 4.4 7.9 19.6-3.2 19.6-4.9 0-9.7-3.6-10.7-7.9-.9-4.4 1.8-9.9 5.7-11.6 4.1-1.8 4.2-1.8 8.2-.1zM245 427.5c2.4 2.2 4.3 7.9 3.5 10.4-2.8 8.9-15 10.8-19 3-2.5-4.8-1.9-8.7 2-12.6 3.2-3.2 4-3.5 7.6-3 2.2.3 4.9 1.3 5.9 2.2zm223.6.9c7.5 7.5 1.4 19.1-9 17.2-6.6-1.3-9.9-8.2-6.9-14.3 3.4-7.1 10.4-8.4 15.9-2.9zm-356.1 21.1c4 9.8 8.8 19.3 15.6 31.1 3.3 5.5 5.9 10.4 5.9 10.8 0 5.6-23.2-37.9-25.6-48-1.1-4.7.9-1.6 4.1 6.1zm479.1-5.9c-2.4 9.3-23.6 49.7-25.3 48.1-.2-.3 2.9-6.4 7-13.6 6.5-11.3 13.1-25 16.6-34.4 1.3-3.4 2.5-3.5 1.7-.1zm-353.8 5.9c3.9 3.2 4.8 7.2 2.8 11.9-4.3 10.3-19.6 6.7-19.6-4.6 0-8.6 10.1-13 16.8-7.3zm238.3.4c5.5 5.5 3.1 14.6-4.5 17.1-10.5 3.4-18-10.3-9.4-17.5 4.3-3.6 10-3.5 13.9.4zm-149.8 10.2c5.7 2.6 7.4 10.8 3.1 15.8-4.8 5.8-13.5 4.7-17-2-4.4-8.6 4.9-17.9 13.9-13.8zm58.6 1.5c3.8 3.2 4.9 8 2.7 12.3-3.5 6.7-12.2 7.8-17 2-8.1-9.6 4.7-22.4 14.3-14.3zm-156.3 7.9c6.8 2.8 8 12.2 2.2 17-9.7 8.2-22.5-4.6-14.3-14.4 2.2-2.6 3.5-3.2 7.8-4 .4 0 2.3.6 4.3 1.4zm254.7 2.6c6 6.5 1.7 16.9-7.1 16.9-7.9 0-12.8-7.3-9.7-14.6 2.8-6.7 11.5-7.9 16.8-2.3zm-175.2 1.5c9.5 4.9 5.5 19.4-5.3 19.4-8.2 0-12.8-9.9-7.7-16.4 3.6-4.6 8-5.6 13-3zm96.2 2.4c3.8 4.3 3.7 9.7-.2 13.9-7.4 7.9-20.5-.2-17-10.6 2.5-7.5 11.7-9.3 17.2-3.3zm-112.2 12.9c2.3 2.3 2.9 3.8 2.9 7.1 0 11-14.8 14.2-19.5 4.3-4.9-10.3 8.5-19.4 16.6-11.4zm129.7-.4c3.9 3.3 4.8 7.4 2.7 11.8-3.1 6.7-11.3 8-16.6 2.8-2.3-2.3-2.9-3.8-2.9-7.1 0-8.8 10-13.3 16.8-7.5zm-197.8 4c3.3 2.9 4.3 7.8 2.6 11.8-2.5 6-9.1 8.3-14.6 5-4.6-2.7-6.5-9.6-4-14.3 2.6-4.9 11.8-6.3 16-2.5zm263.3-1.4c7.6 3.9 7.7 14.8.2 18.4-4.3 2-6.3 1.9-10.1-.4-4.6-2.8-6.1-8-3.7-12.8 2.7-5.6 8.5-7.8 13.6-5.2zm-339 4c6.1 6.6 1.7 16.9-7.3 16.9-6 0-10-4.1-10-10.3 0-9.7 10.5-13.7 17.3-6.6zm418-.3c3.9 3.7 3.9 10.2-.2 14.3-6.4 6.4-17.1 2-17.1-6.9 0-9.7 10.1-14 17.3-7.4zm-292.4 7.6c3.8 3.8 3.7 10.5-.2 14.3-2.2 2.2-3.7 2.8-7.3 2.8-3.9 0-5-.5-7.5-3.3-4.2-4.7-4-9.3.6-13.9 3.2-3.2 4-3.5 7.7-3 2.6.3 5.1 1.5 6.7 3.1zm166.7 0c4.5 4.5 4.7 9.2.5 13.8-2.5 2.8-3.6 3.3-7.5 3.3-6.3 0-10.1-3.7-10.1-9.9 0-9.7 10.3-14 17.1-7.2zm-270.8 31.4l8.5 8.3 2.6-2.4c5-4.7 9.1-6.2 17.1-6.2 5.7 0 8.4.5 11.5 2.2 11.9 6.3 17.3 20 13 32.4-1.5 4.1-1.5 4.5.2 5.7 2.7 2 19.8 10.4 27.8 13.7 3.9 1.6 7.4 3.2 8 3.7 3.9 3.4-16-4.7-30.1-12.2l-9-4.9-2.9 3.1c-12 12.6-33.3 9.2-41.8-6.7-3-5.7-3-17.3 0-23.1l2.2-4.1-6.1-5.9c-8.9-8.7-22.8-24.4-22.8-25.7 0-.7 3 2.2 6.7 6.3 3.6 4.1 10.4 11.2 15.1 15.8zm379.8-18.3c-5.3 6.9-25.8 27.5-26.8 26.9-.6-.4 1.4-2.8 4.3-5.4 3-2.6 9.7-9.6 14.8-15.4 5.2-5.9 9.6-10.4 9.9-10.2.3.3-.7 2.1-2.2 4.1zm-332.6-.8c4.3 4.1 4.5 10.5.5 14.6-6.6 6.6-17.5 1.9-17.5-7.5 0-8.8 10.4-13.1 17-7.1zm38.3 1.4c6.1 6.6 1.7 16.9-7.3 16.9-6 0-10-4.1-10-10.3 0-9.7 10.5-13.7 17.3-6.6zm200.1-3.1c.8 0 2.5 1.2 4 2.6 3.8 3.9 3.7 10.5-.3 14.5-6.6 6.5-17.1 2-17.1-7.3 0-3.5.6-5 2.8-7 2.8-2.7 5.7-3.8 8-3.2.8.2 1.9.4 2.6.4zm41.7 1.9c5.4 5.5 3 15-4.4 16.9-4.4 1.1-7.2.4-10.2-2.5-6.3-6.4-1.5-17.3 7.6-17.3 3.1 0 4.7.7 7 2.9zm-261.7 12.6c3.2 2.1 5 6.7 4.2 10.8-1.7 9-13.9 11.2-18.7 3.3-1-1.7-1.9-4.2-1.9-5.4 0-3.1 2.8-7.8 5.4-9.1 3.2-1.5 8.4-1.3 11 .4zm239.9-.4c2.9 1.3 5.7 5.8 5.7 9.1 0 1.2-.9 3.7-1.9 5.4-4.8 7.8-17 5.7-18.7-3.2-1.6-8.8 6.6-15.1 14.9-11.3zm39.3 11.5c3 1.8 6 4.8 7.9 7.8 2.7 4.4 3 5.8 3 12.6s-.3 8.2-3 12.5c-8.5 13.7-28.6 15.4-38.9 3.4-7.6-9-7.3-24 .7-32.8 7-7.6 21.1-9.2 30.3-3.5zM480 573.8c0 2-35.8 18.8-38.3 17.9-.7-.3.2-1 1.8-1.6 8.3-3.3 21.8-9.6 28-13 7.3-4.1 8.5-4.6 8.5-3.3zm-203.4 13.7c3.3 2.1 4.7 7.9 3 12-4.4 10.3-19.6 7.8-19.6-3.3 0-4.3 2.8-8.7 6.4-10.3 2.6-1.1 7.3-.4 10.2 1.6zm160.7 1.5c6 6.6 1.7 17-7 17-10.9 0-14.9-14.4-5.3-19.3 4.6-2.3 8.7-1.5 12.3 2.3zm-79.6 12.5c3.3 3.7 3.2 10.7-.1 14-6.8 6.8-17.6 2.7-17.6-6.7 0-7.4 4.1-11.1 11.5-10.3 2.7.2 4.7 1.2 6.2 3zm-63.2 0c12.1 2.7 32 5.5 39.1 5.5 2.4 0 4.4.4 4.4 1 0 1.3-1 1.3-16.6-.5-14.2-1.6-37.3-6.1-38.8-7.6-1.4-1.3-.4-1.2 11.9 1.6zm123-1.6c-1.6 1.5-23.7 5.8-38.5 7.5-15.9 1.9-17 1.9-17 .6 0-.6 2-1 4.4-1 7 0 27.2-2.9 38.1-5.4 11.3-2.7 14.4-3 13-1.7z"/></svg>